<?xml version="1.0" encoding="utf-8"?>
<svg width="64" height="64" viewBox="0 0 64 64" xmlns="http://www.w3.org/2000/svg">
  <g>
    <path fill="#fff" d="M 26.34375 0.3125 C 21.567512 0.3125 18.53125 2.6518592 18.53125 7.90625 L 18.53125 13 L 9.0625 13 C 4.2885258 13 0.4375 17.248145 0.4375 22.5 L 0.4375 54.1875 C 0.4375 59.436819 4.2885258 63.71875 9.0625 63.71875 L 55.15625 63.71875 C 59.930225 63.71875 63.8125 59.436819 63.8125 54.1875 L 63.8125 22.5 C 63.8125 17.248145 59.930225 13 55.15625 13 L 45.6875 13 L 45.6875 7.90625 C 45.6875 2.6518592 42.648974 0.3125 37.875 0.3125 L 26.34375 0.3125 z M 25.3125 5.375 L 38.90625 5.375 C 40.497574 5.375 41.15625 6.1539412 41.15625 7.90625 L 41.15625 13 L 23.0625 13 L 23.0625 7.90625 C 23.0625 6.1539412 23.721176 5.375 25.3125 5.375 z M 9.46875 18.0625 L 15.5625 18.0625 L 15.5625 58.625 L 9.46875 58.625 C 7.8774253 58.625 4.9375 55.312273 4.9375 53.5625 L 4.9375 23.125 C 4.9375 21.372692 7.8774253 18.0625 9.46875 18.0625 z M 20.125 18.0625 L 44.28125 18.0625 L 44.28125 58.625 L 20.125 58.625 L 20.125 18.0625 z M 48.84375 18.0625 L 54.75 18.0625 C 56.341326 18.0625 59.28125 21.372692 59.28125 23.125 L 59.28125 53.5625 C 59.28125 55.312273 56.341326 58.625 54.75 58.625 L 48.84375 58.625 L 48.84375 18.0625 z"/>
  </g>
</svg>