<?xml version="1.0" encoding="UTF-8" standalone="no"?>
<svg
   xmlns:dc="http://purl.org/dc/elements/1.1/"
   xmlns:cc="http://creativecommons.org/ns#"
   xmlns:rdf="http://www.w3.org/1999/02/22-rdf-syntax-ns#"
   xmlns:svg="http://www.w3.org/2000/svg"
   xmlns="http://www.w3.org/2000/svg"
   xmlns:sodipodi="http://sodipodi.sourceforge.net/DTD/sodipodi-0.dtd"
   xmlns:inkscape="http://www.inkscape.org/namespaces/inkscape"
   width="70.089"
   height="59.023"
   viewBox="0 0 70.089 59.023"
   enable-background="new 0 0 70.089 59.023"
   id="svg2"
   version="1.1"
   inkscape:version="0.48.4 r9939"
   sodipodi:docname="like.svg">
  <metadata
     id="metadata14">
    <rdf:RDF>
      <cc:Work
         rdf:about="">
        <dc:format>image/svg+xml</dc:format>
        <dc:type
           rdf:resource="http://purl.org/dc/dcmitype/StillImage" />
      </cc:Work>
    </rdf:RDF>
  </metadata>
  <defs
     id="defs12" />
  <sodipodi:namedview
     pagecolor="#888888"
     bordercolor="#666666"
     borderopacity="1"
     objecttolerance="10"
     gridtolerance="10"
     guidetolerance="10"
     inkscape:pageopacity="1"
     inkscape:pageshadow="2"
     inkscape:window-width="1855"
     inkscape:window-height="1056"
     id="namedview10"
     showgrid="false"
     inkscape:zoom="7.9968827"
     inkscape:cx="34.149047"
     inkscape:cy="34.364418"
     inkscape:window-x="65"
     inkscape:window-y="24"
     inkscape:window-maximized="1"
     inkscape:current-layer="svg2" />
  <g
     id="g4"
     transform="translate(3.0011696,1.6256335)">
    <g
       id="g6">
      <path
         clip-rule="evenodd"
         d="m 32.216,47.961 -0.213,0.216 -15.53,-15.74 -7.764,-7.869 c -4.288,-4.347 -4.288,-11.395 0,-15.742 4.29,-4.347 11.241,-4.347 15.53,0 l 7.764,7.871 7.766,-7.871 c 4.287,-4.347 11.241,-4.347 15.529,0 3.135,3.178 3.968,7.795 2.52,11.75 1.731,0.726 3.333,1.695 4.775,2.854 2.661,-6.121 1.534,-13.523 -3.412,-18.538 -6.434,-6.521 -16.863,-6.521 -23.295,0 L 32.003,8.827 28.119,4.893 c -6.433,-6.521 -16.862,-6.521 -23.294,0 -6.433,6.52 -6.433,17.09 0,23.61 l 3.882,3.934 23.295,23.61 3.416,-3.462 c -1.273,-1.378 -2.354,-2.931 -3.202,-4.624 z"
         id="path8"
         inkscape:connector-curvature="0"
         style="fill:#181818;fill-rule:evenodd" />
    </g>
  </g>
</svg>
