
<?xml version="1.0" encoding="utf-8"?>
<svg width="64" height="64" viewBox="0 0 64 64" xmlns="http://www.w3.org/2000/svg">
  <g>
    <path fill="#fff" d="m 13.942276,0.28813559 c -7.5050573,0 -13.58634379,4.73565681 -13.58634379,10.57985141 v 42.31714 c 0,5.839661 6.08128649,10.577585 13.58634379,10.577585 7.505057,0 12.352793,-5.492818 12.352793,-11.334746 V 11.622881 c 0,-5.8419276 -4.847736,-11.33474541 -12.352793,-11.33474541 z M 17.648691,52.427966 c 0,1.947309 -1.204729,4.282267 -3.706415,4.282267 -2.501686,0 -4.9399648,-2.334958 -4.9399648,-4.282267 V 11.622881 c 0,-1.9473089 2.4382788,-4.2822666 4.9399648,-4.2822666 2.501686,0 3.706415,2.3349577 3.706415,4.2822666 V 52.427966 z M 50.173486,0.28813559 c -7.502175,0 -12.349912,5.49281781 -12.349912,11.33474541 v 40.805085 c 0,5.841928 4.847737,11.334746 12.349912,11.334746 7.502175,0 13.589226,-4.737924 13.589226,-10.577585 v -42.31714 c 0,-5.8441946 -6.084169,-10.57985141 -13.589226,-10.57985141 z M 55.116333,52.427966 c 0,1.947309 -2.441161,4.282267 -4.942847,4.282267 -2.498804,0 -3.703533,-2.334958 -3.703533,-4.282267 V 11.622881 c 0,-1.9473089 1.204729,-4.2822666 3.703533,-4.2822666 2.501686,0 4.942847,2.3349577 4.942847,4.2822666 v 40.805085 z"/>
  </g>
</svg>