<?xml version="1.0" encoding="UTF-8" standalone="no"?>
<svg
   xmlns:dc="http://purl.org/dc/elements/1.1/"
   xmlns:cc="http://creativecommons.org/ns#"
   xmlns:rdf="http://www.w3.org/1999/02/22-rdf-syntax-ns#"
   xmlns:svg="http://www.w3.org/2000/svg"
   xmlns="http://www.w3.org/2000/svg"
   xmlns:sodipodi="http://sodipodi.sourceforge.net/DTD/sodipodi-0.dtd"
   xmlns:inkscape="http://www.inkscape.org/namespaces/inkscape"
   width="64"
   height="64"
   viewBox="0 0 64 64"
   id="svg2"
   version="1.1"
   inkscape:version="0.48.4 r9939"
   sodipodi:docname="portfolio.svg">
  <metadata
     id="metadata12">
    <rdf:RDF>
      <cc:Work
         rdf:about="">
        <dc:format>image/svg+xml</dc:format>
        <dc:type
           rdf:resource="http://purl.org/dc/dcmitype/StillImage" />
      </cc:Work>
    </rdf:RDF>
  </metadata>
  <defs
     id="defs10" />
  <sodipodi:namedview
     pagecolor="#888888"
     bordercolor="#666666"
     borderopacity="1"
     objecttolerance="10"
     gridtolerance="10"
     guidetolerance="10"
     inkscape:pageopacity="1"
     inkscape:pageshadow="2"
     inkscape:window-width="1855"
     inkscape:window-height="1056"
     id="namedview8"
     showgrid="false"
     inkscape:zoom="14.75"
     inkscape:cx="43.187091"
     inkscape:cy="28.881097"
     inkscape:window-x="65"
     inkscape:window-y="24"
     inkscape:window-maximized="1"
     inkscape:current-layer="svg2" />
  <g
     id="g4"
     transform="matrix(1.3421843,0,0,1.3378891,-0.09842475,-0.09718928)">
    <path
       style="fill:#ffffff"
       d="M 16.071909,0.28763666 H 6.2067389 c -3.270304,0 -5.91910224,2.64879824 -5.91910224,5.91910224 v 9.8651701 c 0,3.270304 2.64879824,5.919102 5.91910224,5.919102 h 9.8651701 c 3.269318,0 5.919102,-2.648798 5.919102,-5.919102 V 6.2067389 c 0,-3.270304 -2.649784,-5.91910224 -5.919102,-5.91910224 z M 18.044943,16.071909 c 0,1.090101 -0.882933,1.973034 -1.973034,1.973034 H 6.2067389 c -1.0901014,0 -1.9730342,-0.883919 -1.9730342,-1.973034 V 6.2067389 c 0,-1.0901014 0.8829328,-1.9730342 1.9730342,-1.9730342 h 9.8651701 c 1.090101,0 1.973034,0.8829328 1.973034,1.9730342 V 16.071909 z M 41.721352,0.28763666 h -9.86517 c -3.270304,0 -5.919103,2.64879824 -5.919103,5.91910224 v 9.8651701 c 0,3.270304 2.648799,5.919102 5.919103,5.919102 h 9.86517 c 3.269318,0 5.919102,-2.648798 5.919102,-5.919102 V 6.2067389 c 0,-3.270304 -2.649784,-5.91910224 -5.919102,-5.91910224 z M 43.694386,16.071909 c 0,1.090101 -0.883919,1.973034 -1.973034,1.973034 h -9.86517 c -1.090101,0 -1.973034,-0.883919 -1.973034,-1.973034 V 6.2067389 c 0,-1.0901014 0.882933,-1.9730342 1.973034,-1.9730342 h 9.86517 c 1.089115,0 1.973034,0.8829328 1.973034,1.9730342 v 9.8651701 z m -1.973034,9.86517 h -9.86517 c -3.270304,0 -5.919103,2.649785 -5.919103,5.919103 v 9.86517 c 0,3.269318 2.648799,5.919102 5.919103,5.919102 h 9.86517 c 3.269318,0 5.919102,-2.649784 5.919102,-5.919102 v -9.86517 c 0,-3.269318 -2.649784,-5.919103 -5.919102,-5.919103 z m 1.973034,15.784273 c 0,1.089115 -0.883919,1.973034 -1.973034,1.973034 h -9.86517 c -1.090101,0 -1.973034,-0.883919 -1.973034,-1.973034 v -9.86517 c 0,-1.090101 0.882933,-1.973034 1.973034,-1.973034 h 9.86517 c 1.089115,0 1.973034,0.882933 1.973034,1.973034 v 9.86517 z M 16.071909,25.937079 H 6.2067389 c -3.270304,0 -5.91910224,2.649785 -5.91910224,5.919103 v 9.86517 c 0,3.269318 2.64879824,5.919102 5.91910224,5.919102 h 9.8651701 c 3.269318,0 5.919102,-2.649784 5.919102,-5.919102 v -9.86517 c 0,-3.269318 -2.649784,-5.919103 -5.919102,-5.919103 z m 1.973034,15.784273 c 0,1.089115 -0.882933,1.973034 -1.973034,1.973034 H 6.2067389 c -1.0901014,0 -1.9730342,-0.883919 -1.9730342,-1.973034 v -9.86517 c 0,-1.090101 0.8829328,-1.973034 1.9730342,-1.973034 h 9.8651701 c 1.090101,0 1.973034,0.882933 1.973034,1.973034 v 9.86517 z"
       id="path6"
       inkscape:connector-curvature="0" />
  </g>
</svg>
