<?xml version="1.0" encoding="UTF-8" standalone="no"?>
<svg
   xmlns:dc="http://purl.org/dc/elements/1.1/"
   xmlns:cc="http://creativecommons.org/ns#"
   xmlns:rdf="http://www.w3.org/1999/02/22-rdf-syntax-ns#"
   xmlns:svg="http://www.w3.org/2000/svg"
   xmlns="http://www.w3.org/2000/svg"
   xmlns:sodipodi="http://sodipodi.sourceforge.net/DTD/sodipodi-0.dtd"
   xmlns:inkscape="http://www.inkscape.org/namespaces/inkscape"
   width="64"
   height="64"
   viewBox="0 0 64 64"
   id="svg4492"
   version="1.1"
   inkscape:version="0.48.4 r9939"
   sodipodi:docname="search.svg">
  <metadata
     id="metadata4502">
    <rdf:RDF>
      <cc:Work
         rdf:about="">
        <dc:format>image/svg+xml</dc:format>
        <dc:type
           rdf:resource="http://purl.org/dc/dcmitype/StillImage" />
      </cc:Work>
    </rdf:RDF>
  </metadata>
  <defs
     id="defs4500" />
  <sodipodi:namedview
     pagecolor="#888888"
     bordercolor="#666666"
     borderopacity="1"
     objecttolerance="10"
     gridtolerance="10"
     guidetolerance="10"
     inkscape:pageopacity="1"
     inkscape:pageshadow="2"
     inkscape:window-width="1855"
     inkscape:window-height="1056"
     id="namedview4498"
     showgrid="false"
     inkscape:zoom="7.1015625"
     inkscape:cx="12.50628"
     inkscape:cy="36.93604"
     inkscape:window-x="65"
     inkscape:window-y="24"
     inkscape:window-maximized="1"
     inkscape:current-layer="svg4492" />
  <g
     id="g4494"
     transform="matrix(2.6369647,0,0,2.6369647,0.45104511,0.45102091)">
    <path
       d="M 23.681,22.138 17.49,15.947 C 18.833,14.267 20,12.318 20,10 20,4.578 15.531,0 10.006,0 4.48,0 0,4.48 0,10.006 c 0,5.525 4.48,10.006 10.006,10.006 2.362,0 4.262,-1.18 5.94,-2.522 l 6.191,6.19 c 0.214,0.214 0.493,0.32 0.772,0.32 0.279,0 0.558,-0.106 0.771,-0.32 0.426,-0.426 0.426,-1.117 0.001,-1.542 z M 9.99,17.984 c -4.416,0 -7.996,-3.579 -7.996,-7.995 0,-4.416 3.58,-7.995 7.996,-7.995 4.417,0 7.995,3.58 7.995,7.995 -10e-4,4.416 -3.579,7.995 -7.995,7.995 z"
       id="path4496"
       inkscape:connector-curvature="0"
       style="fill:#ffffff" />
  </g>
</svg>
