<?xml version="1.0" encoding="UTF-8" standalone="no"?>
<svg
   xmlns:dc="http://purl.org/dc/elements/1.1/"
   xmlns:cc="http://creativecommons.org/ns#"
   xmlns:rdf="http://www.w3.org/1999/02/22-rdf-syntax-ns#"
   xmlns:svg="http://www.w3.org/2000/svg"
   xmlns="http://www.w3.org/2000/svg"
   xmlns:sodipodi="http://sodipodi.sourceforge.net/DTD/sodipodi-0.dtd"
   xmlns:inkscape="http://www.inkscape.org/namespaces/inkscape"
   width="64"
   height="64"
   viewBox="0 0 64 64"
   id="svg2"
   version="1.1"
   inkscape:version="0.48.4 r9939"
   sodipodi:docname="style_switcher.svg">
  <metadata
     id="metadata12">
    <rdf:RDF>
      <cc:Work
         rdf:about="">
        <dc:format>image/svg+xml</dc:format>
        <dc:type
           rdf:resource="http://purl.org/dc/dcmitype/StillImage" />
      </cc:Work>
    </rdf:RDF>
  </metadata>
  <defs
     id="defs10" />
  <sodipodi:namedview
     pagecolor="#888888"
     bordercolor="#666666"
     borderopacity="1"
     objecttolerance="10"
     gridtolerance="10"
     guidetolerance="10"
     inkscape:pageopacity="1"
     inkscape:pageshadow="2"
     inkscape:window-width="1855"
     inkscape:window-height="1056"
     id="namedview8"
     showgrid="false"
     inkscape:zoom="14.75"
     inkscape:cx="33.274048"
     inkscape:cy="48.735265"
     inkscape:window-x="65"
     inkscape:window-y="24"
     inkscape:window-maximized="1"
     inkscape:current-layer="svg2" />
  <g
     id="g4"
     transform="matrix(1.2698305,0,0,1.2711864,0.33898305,0.27118644)">
    <path
       d="M 43.75,31.25 C 47.201,31.25 50,28.451 50,25 50,21.548 47.201,18.75 43.75,18.75 h -1.067 c -0.222,-0.627 -0.476,-1.239 -0.761,-1.834 l 0.756,-0.755 c 2.44,-2.441 2.44,-6.398 0,-8.839 -2.441,-2.44 -6.398,-2.44 -8.839,0 L 33.084,8.077 C 32.489,7.792 31.877,7.538 31.25,7.316 V 6.25 C 31.25,2.798 28.451,0 25,0 21.549,0 18.75,2.798 18.75,6.25 V 7.317 C 18.123,7.539 17.511,7.793 16.916,8.078 L 16.161,7.323 c -2.441,-2.44 -6.398,-2.44 -8.839,0 -2.441,2.44 -2.44,6.398 0,8.839 l 0.755,0.755 C 7.793,17.512 7.539,18.124 7.316,18.751 H 6.25 C 2.799,18.75 0,21.548 0,25 c 0,3.451 2.799,6.25 6.25,6.25 h 1.066 c 0.223,0.627 0.477,1.238 0.761,1.834 l -0.755,0.755 c -2.44,2.44 -2.44,6.397 0,8.839 2.44,2.44 6.397,2.44 8.839,0 l 0.755,-0.756 c 0.595,0.285 1.207,0.539 1.834,0.762 v 1.066 c 0,3.451 2.799,6.25 6.25,6.25 3.451,0 6.25,-2.799 6.25,-6.25 v -1.066 c 0.627,-0.223 1.239,-0.477 1.834,-0.762 l 0.755,0.756 c 2.44,2.44 6.397,2.44 8.839,0 2.44,-2.441 2.44,-6.398 0,-8.839 l -0.756,-0.755 c 0.285,-0.596 0.539,-1.207 0.761,-1.834 h 1.067 z m -4.314,-4.167 c -0.354,2.472 -1.326,4.741 -2.756,6.65 l 2.97,2.97 0.082,0.082 c 0.813,0.813 0.813,2.133 0,2.946 -0.813,0.813 -2.133,0.813 -2.946,0 l -0.082,-0.082 -2.97,-2.97 c -1.909,1.43 -4.179,2.402 -6.65,2.756 v 4.314 c 0,1.15 -0.933,2.084 -2.083,2.084 -1.15,0 -2.083,-0.934 -2.083,-2.084 v -4.314 c -2.472,-0.354 -4.742,-1.326 -6.65,-2.756 l -2.97,2.97 -0.082,0.082 c -0.813,0.813 -2.133,0.813 -2.946,0 -0.813,-0.813 -0.813,-2.133 0,-2.946 l 0.082,-0.082 2.969,-2.97 C 11.892,31.824 10.92,29.554 10.565,27.083 H 6.25 C 5.1,27.083 4.166,26.15 4.166,25 4.166,23.85 5.1,22.917 6.25,22.917 h 4.313 c 0.354,-2.471 1.327,-4.741 2.756,-6.65 l -2.969,-2.97 -0.082,-0.081 c -0.813,-0.814 -0.813,-2.133 0,-2.947 0.813,-0.813 2.133,-0.813 2.946,0 l 0.082,0.082 2.97,2.969 c 1.908,-1.429 4.179,-2.402 6.65,-2.755 V 6.25 c 0,-1.15 0.933,-2.083 2.083,-2.083 1.15,0 2.084,0.933 2.084,2.083 v 4.314 c 2.472,0.354 4.741,1.326 6.65,2.755 l 2.97,-2.969 0.082,-0.082 c 0.813,-0.813 2.133,-0.813 2.946,0 0.813,0.813 0.813,2.133 0,2.947 l -0.082,0.081 -2.97,2.97 c 1.43,1.909 2.402,4.18 2.756,6.65 h 4.314 c 1.15,0 2.083,0.933 2.083,2.083 0,1.15 -0.933,2.083 -2.083,2.083 H 39.436 z M 25,16.667 c -4.603,0 -8.334,3.731 -8.334,8.333 0,4.602 3.731,8.334 8.334,8.334 4.603,0 8.333,-3.731 8.333,-8.334 0,-4.603 -3.73,-8.333 -8.333,-8.333 z m 0,12.499 c -2.302,0 -4.167,-1.865 -4.167,-4.166 0,-2.301 1.865,-4.167 4.167,-4.167 2.301,0 4.167,1.865 4.167,4.167 0,2.301 -1.866,4.166 -4.167,4.166 z"
       id="path6"
       inkscape:connector-curvature="0"
       style="fill:#ffffff" />
  </g>
</svg>
